<?xml version="1.0" encoding="UTF-8"?>
<svg version="1.1" xmlns="http://www.w3.org/2000/svg" width="32" height="32">
<path d="M0 0 C10.56 0 21.12 0 32 0 C32 10.56 32 21.12 32 32 C21.44 32 10.88 32 0 32 C0 21.44 0 10.88 0 0 Z " fill="#181818" transform="translate(0,0)"/>
<path d="M0 0 C3.91630159 1.30543386 6.67499864 2.51249795 9 6 C9.29922606 9.1858775 8.99345478 11.95824238 8 15 C5.4375 17.5625 5.4375 17.5625 3 19 C2.34 18.67 1.68 18.34 1 18 C1.33 17.34 1.66 16.68 2 16 C2.12271508 13.85676694 2.17553395 11.70920998 2.1875 9.5625 C2.20167969 8.40878906 2.21585938 7.25507813 2.23046875 6.06640625 C2.23925088 2.82719832 2.23925088 2.82719832 0 0 Z " fill="#EDEDED" transform="translate(18,6)"/>
<path d="M0 0 C0.66 0.33 1.32 0.66 2 1 C1.34 1.66 0.68 2.32 0 3 C-0.28222404 6.02542609 -0.28222404 6.02542609 -0.1875 9.4375 C-0.18105469 10.59121094 -0.17460937 11.74492187 -0.16796875 12.93359375 C-0.13302925 16.0406891 -0.13302925 16.0406891 1 19 C-2.14158949 18.06601394 -3.7325148 17.33205059 -5.8125 14.75 C-7.27486564 11.36346904 -7.7436914 9.64408784 -7 6 C-4.88422368 3.68948805 -2.53882708 1.82640111 0 0 Z " fill="#EDEDED" transform="translate(12,6)"/>
</svg>
